<svg xmlns="http://www.w3.org/2000/svg" viewBox="0 0 700 650" fill="none" role="img" aria-labelledby="title"><title id="title">Sunset Esports gilded starburst</title><defs><linearGradient id="gold" x1="0" x2="1" y1="0" y2="1"><stop stop-color="#fff5ad"/><stop offset=".2" stop-color="#ffcf39"/><stop offset=".53" stop-color="#a65a00"/><stop offset=".72" stop-color="#ffdf4c"/><stop offset="1" stop-color="#754000"/></linearGradient><linearGradient id="face" x1="0" x2=".75" y1="0" y2="1"><stop stop-color="#39352a"/><stop offset=".48" stop-color="#171611"/><stop offset="1" stop-color="#090806"/></linearGradient><filter id="glow" x="-.5" y="-.5" width="2" height="2"><feGaussianBlur stdDeviation="9" result="blur"/><feMerge><feMergeNode in="blur"/><feMergeNode in="SourceGraphic"/></feMerge></filter></defs><g filter="url(#glow)" stroke="#ffd343" stroke-linejoin="round" stroke-width="2"><path fill="url(#gold)" d="m333 250 37-228 44-18 12 260z"/><path fill="url(#face)" d="m334 250 35-226 44 240z"/><path fill="url(#gold)" d="m322 251-184-151-39 14 193 187z"/><path fill="url(#face)" d="m322 251-184-151 178 217z"/><path fill="url(#gold)" d="m401 250 179-152 40 15-192 188z"/><path fill="url(#face)" d="m401 250 179-152-178 217z"/><path fill="url(#gold)" d="m299 268-275 37-12 34 283 11z"/><path fill="url(#face)" d="m299 268-275 37 273 63z"/><path fill="url(#gold)" d="m424 269 270 36 12 35-281 10z"/><path fill="url(#face)" d="m424 269 270 36-272 64z"/><path fill="url(#gold)" d="m354 270-227 340 15 34 235-341z"/><path fill="url(#face)" d="m354 270-227 340 260-306z"/><path fill="url(#gold)" d="m382 270 226 340-14 34-234-341z"/><path fill="url(#face)" d="m382 270 226 340-260-306z"/><path fill="url(#gold)" d="m365 261 33 369-33 20-18-380z"/><path fill="url(#face)" d="m365 261 33 369-33-12z"/></g></svg>
